<svg width="353" height="103" viewBox="0 0 353 103" fill="none" xmlns="http://www.w3.org/2000/svg">
<g filter="url(#filter0_d_10_1832)">
<path d="M16.9956 17.1736H335.658V50.3145C335.658 70.9642 318.918 87.7042 298.268 87.7042H54.3853C33.7355 87.7042 16.9956 70.9642 16.9956 50.3145V17.1736Z" fill="white"/>
<rect x="119.061" y="76.7653" width="113.869" height="4.24883" rx="2.12441" fill="black"/>
<g clip-path="url(#clip0_10_1832)">
<path d="M63.5438 54.1063H60.9001C60.1989 54.1063 59.5265 53.8309 59.0307 53.3408C58.5349 52.8507 58.2563 52.186 58.2563 51.4929V40.1119C58.2566 39.7204 58.3458 39.334 58.5174 38.9812C58.689 38.6284 58.9386 38.3182 59.2477 38.0735L67.1789 31.8016C67.6478 31.4305 68.2305 31.2283 68.8312 31.2283C69.4319 31.2283 70.0146 31.4305 70.4835 31.8016L78.4147 38.0735C78.7238 38.3182 78.9734 38.6284 79.145 38.9812C79.3166 39.334 79.4058 39.7204 79.4061 40.1119V51.4929C79.4061 52.186 79.1275 52.8507 78.6317 53.3408C78.1359 53.8309 77.4635 54.1063 76.7623 54.1063H74.1186" stroke="#222224" stroke-width="1.69953" stroke-linecap="round" stroke-linejoin="round"/>
<path d="M64.8657 46.2663H72.7969" stroke="#8C10FE" stroke-width="1.69953" stroke-linecap="round" stroke-linejoin="round"/>
<path d="M68.8313 42.3463V54.1063" stroke="#8C10FE" stroke-width="1.69953" stroke-linecap="round" stroke-linejoin="round"/>
</g>
<g clip-path="url(#clip1_10_1832)">
<path d="M176.751 42.0667C178.104 42.0667 179.401 42.5723 180.357 43.4722C181.313 44.3722 181.85 45.5927 181.85 46.8654V51.6641H171.653V46.8654C171.653 45.5927 172.19 44.3722 173.146 43.4722C174.102 42.5723 175.399 42.0667 176.751 42.0667V42.0667Z" stroke="#BDBDC1" stroke-width="1.69953" stroke-linecap="round" stroke-linejoin="round"/>
<path d="M176.751 38.4677C178.159 38.4677 179.301 37.3935 179.301 36.0684C179.301 34.7433 178.159 33.6691 176.751 33.6691C175.344 33.6691 174.202 34.7433 174.202 36.0684C174.202 37.3935 175.344 38.4677 176.751 38.4677Z" stroke="#BDBDC1" stroke-width="1.69953" stroke-linecap="round" stroke-linejoin="round"/>
<path d="M167.829 51.6641C167.153 51.6641 166.504 51.4113 166.026 50.9613C165.548 50.5114 165.28 49.9011 165.28 49.2648V47.7652C165.279 46.9267 165.589 46.1142 166.157 45.4681C166.725 44.8219 167.514 44.3827 168.39 44.2262" stroke="#BDBDC1" stroke-width="1.69953" stroke-linecap="round" stroke-linejoin="round"/>
<path d="M169.104 40.8671C169.807 40.8671 170.378 40.33 170.378 39.6674C170.378 39.0049 169.807 38.4677 169.104 38.4677C168.4 38.4677 167.829 39.0049 167.829 39.6674C167.829 40.33 168.4 40.8671 169.104 40.8671Z" stroke="#BDBDC1" stroke-width="1.69953" stroke-linecap="round" stroke-linejoin="round"/>
<path d="M185.674 51.6641C186.35 51.6641 186.998 51.4113 187.477 50.9613C187.955 50.5114 188.223 49.9011 188.223 49.2648V47.7652C188.224 46.9267 187.914 46.1142 187.346 45.4681C186.778 44.8219 185.988 44.3827 185.113 44.2262" stroke="#BDBDC1" stroke-width="1.69953" stroke-linecap="round" stroke-linejoin="round"/>
<path d="M184.399 40.8671C185.103 40.8671 185.674 40.33 185.674 39.6674C185.674 39.0049 185.103 38.4677 184.399 38.4677C183.695 38.4677 183.125 39.0049 183.125 39.6674C183.125 40.33 183.695 40.8671 184.399 40.8671Z" stroke="#BDBDC1" stroke-width="1.69953" stroke-linecap="round" stroke-linejoin="round"/>
</g>
<g clip-path="url(#clip2_10_1832)">
<path d="M276.835 36.2932H287.41" stroke="#BDBDC1" stroke-width="1.69953" stroke-linecap="round" stroke-linejoin="round"/>
<path d="M276.835 41.3918H287.41" stroke="#BDBDC1" stroke-width="1.69953" stroke-linecap="round" stroke-linejoin="round"/>
<path d="M290.053 31.1946H274.191C272.731 31.1946 271.547 32.336 271.547 33.7439V51.589C271.547 52.9969 272.731 54.1383 274.191 54.1383H290.053C291.513 54.1383 292.697 52.9969 292.697 51.589V33.7439C292.697 32.336 291.513 31.1946 290.053 31.1946Z" stroke="#BDBDC1" stroke-width="1.69953" stroke-linecap="round" stroke-linejoin="round"/>
<path d="M271.547 46.4904H277.496C278.022 46.4904 278.526 46.6918 278.898 47.0504C279.27 47.4089 279.479 47.8953 279.479 48.4023V48.4023C279.479 48.9094 279.687 49.3957 280.059 49.7543C280.431 50.1129 280.935 50.3143 281.461 50.3143H282.783C283.309 50.3143 283.813 50.1129 284.185 49.7543C284.557 49.3957 284.766 48.9094 284.766 48.4023C284.766 47.8953 284.975 47.4089 285.347 47.0504C285.719 46.6918 286.223 46.4904 286.749 46.4904H292.697" stroke="#BDBDC1" stroke-width="1.69953" stroke-linecap="round" stroke-linejoin="round"/>
</g>
</g>
<defs>
<filter id="filter0_d_10_1832" x="0.000299454" y="0.178339" width="352.652" height="104.521" filterUnits="userSpaceOnUse" color-interpolation-filters="sRGB">
<feFlood flood-opacity="0" result="BackgroundImageFix"/>
<feColorMatrix in="SourceAlpha" type="matrix" values="0 0 0 0 0 0 0 0 0 0 0 0 0 0 0 0 0 0 127 0" result="hardAlpha"/>
<feOffset/>
<feGaussianBlur stdDeviation="8.49765"/>
<feColorMatrix type="matrix" values="0 0 0 0 0 0 0 0 0 0 0 0 0 0 0 0 0 0 0.06 0"/>
<feBlend mode="normal" in2="BackgroundImageFix" result="effect1_dropShadow_10_1832"/>
<feBlend mode="normal" in="SourceGraphic" in2="effect1_dropShadow_10_1832" result="shape"/>
</filter>
<clipPath id="clip0_10_1832">
<rect width="23.7934" height="25.493" fill="white" transform="translate(56.9346 29.92)"/>
</clipPath>
<clipPath id="clip1_10_1832">
<rect width="25.493" height="20.3944" fill="white" transform="translate(164.005 32.4694)"/>
</clipPath>
<clipPath id="clip2_10_1832">
<rect width="23.7934" height="25.493" fill="white" transform="translate(270.226 29.92)"/>
</clipPath>
</defs>
</svg>
