<svg width="31" height="32" viewBox="0 0 31 32" fill="none" xmlns="http://www.w3.org/2000/svg">
<path d="M20.8693 22.4116C20.3879 21.3329 19.6046 20.4166 18.6139 19.7733C17.6233 19.13 16.4675 18.7873 15.2863 18.7865C14.1051 18.7873 12.9494 19.13 11.9587 19.7733C10.968 20.4166 10.1847 21.3329 9.70337 22.4116" stroke="#8C10FE" stroke-width="1.69953" stroke-linecap="round" stroke-linejoin="round"/>
<path d="M15.2862 14.1977C16.9757 14.1977 18.3454 12.8281 18.3454 11.1386C18.3454 9.44907 16.9757 8.07944 15.2862 8.07944C13.5967 8.07944 12.2271 9.44907 12.2271 11.1386C12.2271 12.8281 13.5967 14.1977 15.2862 14.1977Z" stroke="#8C10FE" stroke-width="1.69953" stroke-linecap="round" stroke-linejoin="round"/>
<path d="M15.2862 29.4935C22.8891 29.4935 29.0524 23.3302 29.0524 15.7273C29.0524 8.12446 22.8891 1.96112 15.2862 1.96112C7.68336 1.96112 1.52002 8.12446 1.52002 15.7273C1.52002 23.3302 7.68336 29.4935 15.2862 29.4935Z" stroke="#222224" stroke-width="1.69953" stroke-linecap="round" stroke-linejoin="round"/>
</svg>
